<svg width="440" height="114" viewBox="0 0 440 114" fill="none" xmlns="http://www.w3.org/2000/svg">
<g filter="url(#filter0_d_23_111)">
<rect width="400" height="74" transform="translate(20 20)" fill="#202124"/>
<rect width="400" height="74" transform="translate(20 20)" fill="white" fill-opacity="0.08"/>
<g clip-path="url(#clip0_23_111)">
<path d="M43.125 49.25C46.5077 49.25 49.25 46.5077 49.25 43.125C49.25 39.7423 46.5077 37 43.125 37C39.7423 37 37 39.7423 37 43.125C37 46.5077 39.7423 49.25 43.125 49.25Z" stroke="white" stroke-opacity="0.6" stroke-linecap="round" stroke-linejoin="round"/>
<path d="M47.4561 47.4563L50.9998 51" stroke="white" stroke-opacity="0.6" stroke-linecap="round" stroke-linejoin="round"/>
</g>
<path d="M77.4261 43H76.1932C76.1203 42.6454 75.9927 42.3338 75.8104 42.0653C75.6314 41.7969 75.4126 41.5715 75.1541 41.3892C74.8989 41.2036 74.6155 41.0644 74.304 40.9716C73.9924 40.8788 73.6676 40.8324 73.3295 40.8324C72.7131 40.8324 72.1546 40.9882 71.6541 41.2997C71.157 41.6113 70.7609 42.0703 70.4659 42.6768C70.1742 43.2834 70.0284 44.0275 70.0284 44.9091C70.0284 45.7907 70.1742 46.5348 70.4659 47.1413C70.7609 47.7479 71.157 48.2069 71.6541 48.5185C72.1546 48.83 72.7131 48.9858 73.3295 48.9858C73.6676 48.9858 73.9924 48.9394 74.304 48.8466C74.6155 48.7538 74.8989 48.6162 75.1541 48.4339C75.4126 48.2483 75.6314 48.0213 75.8104 47.7528C75.9927 47.4811 76.1203 47.1695 76.1932 46.8182H77.4261C77.3333 47.3385 77.1643 47.8042 76.919 48.2152C76.6738 48.6262 76.3688 48.9759 76.0043 49.2642C75.6397 49.5492 75.2304 49.7663 74.7763 49.9155C74.3255 50.0646 73.8433 50.1392 73.3295 50.1392C72.4612 50.1392 71.6889 49.9271 71.0128 49.5028C70.3366 49.0786 69.8047 48.4754 69.4169 47.6932C69.0291 46.911 68.8352 45.983 68.8352 44.9091C68.8352 43.8352 69.0291 42.9072 69.4169 42.125C69.8047 41.3428 70.3366 40.7396 71.0128 40.3153C71.6889 39.8911 72.4612 39.679 73.3295 39.679C73.8433 39.679 74.3255 39.7536 74.7763 39.9027C75.2304 40.0518 75.6397 40.2706 76.0043 40.5589C76.3688 40.844 76.6738 41.192 76.919 41.603C77.1643 42.0107 77.3333 42.4763 77.4261 43ZM82.3617 50.1591C81.6723 50.1591 81.0674 49.995 80.5471 49.6669C80.03 49.3388 79.6257 48.8797 79.334 48.2898C79.0456 47.6998 78.9015 47.0104 78.9015 46.2216C78.9015 45.4261 79.0456 44.7318 79.334 44.1385C79.6257 43.5452 80.03 43.0845 80.5471 42.7564C81.0674 42.4283 81.6723 42.2642 82.3617 42.2642C83.0511 42.2642 83.6543 42.4283 84.1713 42.7564C84.6917 43.0845 85.0961 43.5452 85.3844 44.1385C85.6761 44.7318 85.8219 45.4261 85.8219 46.2216C85.8219 47.0104 85.6761 47.6998 85.3844 48.2898C85.0961 48.8797 84.6917 49.3388 84.1713 49.6669C83.6543 49.995 83.0511 50.1591 82.3617 50.1591ZM82.3617 49.1051C82.8854 49.1051 83.3162 48.9709 83.6543 48.7024C83.9924 48.4339 84.2426 48.081 84.405 47.6435C84.5674 47.206 84.6486 46.732 84.6486 46.2216C84.6486 45.7112 84.5674 45.2356 84.405 44.7947C84.2426 44.3539 83.9924 43.9976 83.6543 43.7259C83.3162 43.4541 82.8854 43.3182 82.3617 43.3182C81.838 43.3182 81.4071 43.4541 81.0691 43.7259C80.731 43.9976 80.4808 44.3539 80.3184 44.7947C80.156 45.2356 80.0748 45.7112 80.0748 46.2216C80.0748 46.732 80.156 47.206 80.3184 47.6435C80.4808 48.081 80.731 48.4339 81.0691 48.7024C81.4071 48.9709 81.838 49.1051 82.3617 49.1051ZM90.9339 42.3636V43.358H86.9766V42.3636H90.9339ZM88.13 40.5341H89.3033V47.8125C89.3033 48.1439 89.3513 48.3925 89.4474 48.5582C89.5469 48.7206 89.6728 48.83 89.8253 48.8864C89.9811 48.9394 90.1451 48.9659 90.3175 48.9659C90.4467 48.9659 90.5528 48.9593 90.6357 48.946C90.7185 48.9295 90.7848 48.9162 90.8345 48.9062L91.0732 49.9602C90.9936 49.9901 90.8826 50.0199 90.7401 50.0497C90.5975 50.0829 90.4169 50.0994 90.1982 50.0994C89.8667 50.0994 89.5419 50.0282 89.2237 49.8857C88.9089 49.7431 88.647 49.526 88.4382 49.2344C88.2327 48.9427 88.13 48.5748 88.13 48.1307V40.5341ZM96.0199 42.3636V43.358H92.0625V42.3636H96.0199ZM93.2159 40.5341H94.3892V47.8125C94.3892 48.1439 94.4373 48.3925 94.5334 48.5582C94.6328 48.7206 94.7588 48.83 94.9112 48.8864C95.067 48.9394 95.2311 48.9659 95.4034 48.9659C95.5327 48.9659 95.6387 48.9593 95.7216 48.946C95.8045 48.9295 95.8707 48.9162 95.9205 48.9062L96.1591 49.9602C96.0795 49.9901 95.9685 50.0199 95.826 50.0497C95.6835 50.0829 95.5028 50.0994 95.2841 50.0994C94.9527 50.0994 94.6278 50.0282 94.3097 49.8857C93.9948 49.7431 93.733 49.526 93.5241 49.2344C93.3187 48.9427 93.2159 48.5748 93.2159 48.1307V40.5341ZM100.805 50.1591C100.116 50.1591 99.5108 49.995 98.9904 49.6669C98.4734 49.3388 98.069 48.8797 97.7773 48.2898C97.489 47.6998 97.3448 47.0104 97.3448 46.2216C97.3448 45.4261 97.489 44.7318 97.7773 44.1385C98.069 43.5452 98.4734 43.0845 98.9904 42.7564C99.5108 42.4283 100.116 42.2642 100.805 42.2642C101.494 42.2642 102.098 42.4283 102.615 42.7564C103.135 43.0845 103.539 43.5452 103.828 44.1385C104.119 44.7318 104.265 45.4261 104.265 46.2216C104.265 47.0104 104.119 47.6998 103.828 48.2898C103.539 48.8797 103.135 49.3388 102.615 49.6669C102.098 49.995 101.494 50.1591 100.805 50.1591ZM100.805 49.1051C101.329 49.1051 101.76 48.9709 102.098 48.7024C102.436 48.4339 102.686 48.081 102.848 47.6435C103.011 47.206 103.092 46.732 103.092 46.2216C103.092 45.7112 103.011 45.2356 102.848 44.7947C102.686 44.3539 102.436 43.9976 102.098 43.7259C101.76 43.4541 101.329 43.3182 100.805 43.3182C100.281 43.3182 99.8505 43.4541 99.5124 43.7259C99.1744 43.9976 98.9241 44.3539 98.7617 44.7947C98.5993 45.2356 98.5181 45.7112 98.5181 46.2216C98.5181 46.732 98.5993 47.206 98.7617 47.6435C98.9241 48.081 99.1744 48.4339 99.5124 48.7024C99.8505 48.9709 100.281 49.1051 100.805 49.1051ZM107.23 45.4062V50H106.056V42.3636H107.19V43.5568H107.289C107.468 43.169 107.74 42.8575 108.105 42.6222C108.469 42.3835 108.94 42.2642 109.517 42.2642C110.034 42.2642 110.486 42.3703 110.874 42.5824C111.262 42.7912 111.563 43.1094 111.779 43.5369C111.994 43.9612 112.102 44.4981 112.102 45.1477V50H110.928V45.2273C110.928 44.6274 110.773 44.16 110.461 43.8253C110.15 43.4872 109.722 43.3182 109.178 43.3182C108.804 43.3182 108.469 43.3994 108.174 43.5618C107.883 43.7242 107.652 43.9612 107.483 44.2727C107.314 44.5843 107.23 44.9621 107.23 45.4062ZM115.956 36.5369V53.2812H114.962V36.5369H115.956Z" fill="white" fill-opacity="0.87"/>
<path d="M335.494 50.1392C334.838 50.1392 334.253 50.0265 333.739 49.8011C333.229 49.5758 332.823 49.2625 332.521 48.8615C332.223 48.4571 332.061 47.9882 332.034 47.4545H333.287C333.313 47.7827 333.426 48.0661 333.625 48.3047C333.824 48.54 334.084 48.7223 334.406 48.8516C334.727 48.9808 335.083 49.0455 335.474 49.0455C335.912 49.0455 336.3 48.9692 336.638 48.8168C336.976 48.6643 337.241 48.4522 337.433 48.1804C337.625 47.9086 337.722 47.5938 337.722 47.2358C337.722 46.8613 337.629 46.5315 337.443 46.2464C337.258 45.9581 336.986 45.7327 336.628 45.5703C336.27 45.4079 335.832 45.3267 335.315 45.3267H334.5V44.233H335.315C335.72 44.233 336.074 44.16 336.379 44.0142C336.688 43.8684 336.928 43.6629 337.1 43.3977C337.276 43.1326 337.364 42.821 337.364 42.4631C337.364 42.1184 337.287 41.8184 337.135 41.5632C336.982 41.308 336.767 41.1091 336.489 40.9666C336.214 40.8241 335.889 40.7528 335.514 40.7528C335.163 40.7528 334.831 40.8175 334.52 40.9467C334.212 41.0727 333.96 41.2566 333.764 41.4986C333.569 41.7372 333.463 42.0256 333.446 42.3636H332.253C332.273 41.83 332.433 41.3627 332.735 40.9616C333.037 40.5573 333.431 40.2424 333.918 40.017C334.409 39.7917 334.947 39.679 335.534 39.679C336.164 39.679 336.704 39.8066 337.155 40.0618C337.606 40.3137 337.952 40.6468 338.194 41.0611C338.436 41.4754 338.557 41.9228 338.557 42.4034C338.557 42.9768 338.406 43.4657 338.104 43.87C337.806 44.2744 337.4 44.5545 336.886 44.7102V44.7898C337.529 44.8958 338.031 45.1693 338.393 45.6101C338.754 46.0476 338.935 46.5895 338.935 47.2358C338.935 47.7893 338.784 48.2865 338.482 48.7273C338.184 49.1648 337.776 49.5095 337.259 49.7614C336.742 50.0133 336.154 50.1392 335.494 50.1392ZM344.548 39.8182V50H343.315V41.1108H343.255L340.769 42.7614V41.5085L343.315 39.8182H344.548ZM347.237 47.9119V46.8977L351.712 39.8182H352.447V41.3892H351.95L348.57 46.7386V46.8182H354.595V47.9119H347.237ZM352.03 50V47.6037V47.1314V39.8182H353.203V50H352.03ZM360.416 50V42.3636H361.549V43.517H361.629C361.768 43.1392 362.02 42.8326 362.384 42.5973C362.749 42.362 363.16 42.2443 363.617 42.2443C363.704 42.2443 363.811 42.246 363.941 42.2493C364.07 42.2526 364.168 42.2576 364.234 42.2642V43.4574C364.194 43.4474 364.103 43.4325 363.96 43.4126C363.821 43.3894 363.674 43.3778 363.518 43.3778C363.147 43.3778 362.815 43.4557 362.524 43.6115C362.235 43.764 362.007 43.9761 361.838 44.2479C361.672 44.5163 361.589 44.8229 361.589 45.1676V50H360.416ZM368.594 50.1591C367.858 50.1591 367.223 49.9967 366.69 49.6719C366.16 49.3438 365.75 48.8864 365.462 48.2997C365.177 47.7098 365.034 47.0237 365.034 46.2415C365.034 45.4593 365.177 44.7699 365.462 44.1733C365.75 43.5734 366.151 43.1061 366.665 42.7713C367.182 42.4332 367.785 42.2642 368.475 42.2642C368.872 42.2642 369.265 42.3305 369.653 42.4631C370.041 42.5956 370.394 42.8111 370.712 43.1094C371.03 43.4044 371.284 43.7955 371.472 44.2827C371.661 44.7699 371.756 45.3698 371.756 46.0824V46.5795H365.869V45.5653H370.563C370.563 45.1345 370.477 44.75 370.304 44.4119C370.135 44.0739 369.893 43.8071 369.578 43.6115C369.267 43.416 368.899 43.3182 368.475 43.3182C368.007 43.3182 367.603 43.4342 367.262 43.6662C366.923 43.8949 366.663 44.1932 366.481 44.5611C366.299 44.929 366.208 45.3234 366.208 45.7443V46.4205C366.208 46.9972 366.307 47.486 366.506 47.8871C366.708 48.2848 366.988 48.5881 367.346 48.7969C367.704 49.0024 368.12 49.1051 368.594 49.1051C368.902 49.1051 369.181 49.062 369.429 48.9759C369.681 48.8864 369.898 48.7538 370.08 48.5781C370.263 48.3991 370.404 48.1771 370.503 47.9119L371.637 48.2301C371.517 48.6146 371.317 48.9527 371.035 49.2443C370.753 49.5327 370.405 49.758 369.991 49.9205C369.577 50.0795 369.111 50.1591 368.594 50.1591ZM378.95 44.0739L377.896 44.3722C377.829 44.1965 377.732 44.0258 377.602 43.8601C377.477 43.6911 377.304 43.5518 377.085 43.4425C376.867 43.3331 376.587 43.2784 376.245 43.2784C375.778 43.2784 375.388 43.3861 375.077 43.6016C374.769 43.8137 374.615 44.0838 374.615 44.4119C374.615 44.7036 374.721 44.9339 374.933 45.103C375.145 45.272 375.476 45.4129 375.927 45.5256L377.061 45.804C377.743 45.9697 378.252 46.2232 378.587 46.5646C378.922 46.9027 379.089 47.3385 379.089 47.8722C379.089 48.3097 378.963 48.7008 378.711 49.0455C378.463 49.3902 378.115 49.6619 377.667 49.8608C377.22 50.0597 376.699 50.1591 376.106 50.1591C375.327 50.1591 374.682 49.9901 374.172 49.652C373.662 49.3139 373.338 48.8201 373.203 48.1705L374.316 47.892C374.422 48.303 374.623 48.6113 374.918 48.8168C375.216 49.0223 375.606 49.125 376.086 49.125C376.633 49.125 377.067 49.009 377.389 48.777C377.713 48.5417 377.876 48.2599 377.876 47.9318C377.876 47.6667 377.783 47.4446 377.597 47.2656C377.412 47.0833 377.127 46.9474 376.742 46.858L375.47 46.5597C374.77 46.3939 374.257 46.1371 373.928 45.7891C373.604 45.4377 373.441 44.9986 373.441 44.4716C373.441 44.0407 373.562 43.6596 373.804 43.3281C374.049 42.9967 374.383 42.7365 374.803 42.5476C375.228 42.3587 375.708 42.2642 376.245 42.2642C377.001 42.2642 377.594 42.4299 378.025 42.7614C378.459 43.0928 378.767 43.5303 378.95 44.0739ZM385.668 46.8778V42.3636H386.841V50H385.668V48.7074H385.588C385.409 49.0952 385.131 49.425 384.753 49.6967C384.375 49.9652 383.898 50.0994 383.321 50.0994C382.844 50.0994 382.42 49.995 382.048 49.7862C381.677 49.5741 381.385 49.2559 381.173 48.8317C380.961 48.4041 380.855 47.8655 380.855 47.2159V42.3636H382.028V47.1364C382.028 47.6932 382.184 48.1373 382.496 48.4688C382.811 48.8002 383.212 48.9659 383.699 48.9659C383.991 48.9659 384.287 48.8913 384.589 48.7422C384.894 48.593 385.149 48.3643 385.354 48.0561C385.563 47.7479 385.668 47.3551 385.668 46.8778ZM390.163 39.8182V50H388.99V39.8182H390.163ZM395.633 42.3636V43.358H391.676V42.3636H395.633ZM392.829 40.5341H394.002V47.8125C394.002 48.1439 394.051 48.3925 394.147 48.5582C394.246 48.7206 394.372 48.83 394.525 48.8864C394.68 48.9394 394.844 48.9659 395.017 48.9659C395.146 48.9659 395.252 48.9593 395.335 48.946C395.418 48.9295 395.484 48.9162 395.534 48.9062L395.772 49.9602C395.693 49.9901 395.582 50.0199 395.439 50.0497C395.297 50.0829 395.116 50.0994 394.897 50.0994C394.566 50.0994 394.241 50.0282 393.923 49.8857C393.608 49.7431 393.346 49.526 393.137 49.2344C392.932 48.9427 392.829 48.5748 392.829 48.1307V40.5341ZM402.67 44.0739L401.616 44.3722C401.55 44.1965 401.452 44.0258 401.323 43.8601C401.197 43.6911 401.025 43.5518 400.806 43.4425C400.587 43.3331 400.307 43.2784 399.966 43.2784C399.499 43.2784 399.109 43.3861 398.798 43.6016C398.489 43.8137 398.335 44.0838 398.335 44.4119C398.335 44.7036 398.441 44.9339 398.653 45.103C398.866 45.272 399.197 45.4129 399.648 45.5256L400.781 45.804C401.464 45.9697 401.973 46.2232 402.308 46.5646C402.642 46.9027 402.81 47.3385 402.81 47.8722C402.81 48.3097 402.684 48.7008 402.432 49.0455C402.183 49.3902 401.835 49.6619 401.388 49.8608C400.94 50.0597 400.42 50.1591 399.827 50.1591C399.048 50.1591 398.403 49.9901 397.893 49.652C397.382 49.3139 397.059 48.8201 396.923 48.1705L398.037 47.892C398.143 48.303 398.344 48.6113 398.638 48.8168C398.937 49.0223 399.326 49.125 399.807 49.125C400.354 49.125 400.788 49.009 401.109 48.777C401.434 48.5417 401.597 48.2599 401.597 47.9318C401.597 47.6667 401.504 47.4446 401.318 47.2656C401.133 47.0833 400.848 46.9474 400.463 46.858L399.19 46.5597C398.491 46.3939 397.977 46.1371 397.649 45.7891C397.324 45.4377 397.162 44.9986 397.162 44.4716C397.162 44.0407 397.283 43.6596 397.525 43.3281C397.77 42.9967 398.103 42.7365 398.524 42.5476C398.948 42.3587 399.429 42.2642 399.966 42.2642C400.722 42.2642 401.315 42.4299 401.746 42.7614C402.18 43.0928 402.488 43.5303 402.67 44.0739Z" fill="white" fill-opacity="0.38"/>
<line x1="20" y1="60.5" x2="420" y2="60.5" stroke="white" stroke-opacity="0.12"/>
<path d="M37.233 72.8182H38.7045L42.1648 81.2699H42.2841L45.7443 72.8182H47.2159V83H46.0625V75.2642H45.9631L42.7812 83H41.6676L38.4858 75.2642H38.3864V83H37.233V72.8182ZM51.7761 83.179C51.2922 83.179 50.853 83.0878 50.4586 82.9055C50.0642 82.7199 49.751 82.4531 49.519 82.1051C49.287 81.7538 49.171 81.3295 49.171 80.8324C49.171 80.3949 49.2572 80.0402 49.4295 79.7685C49.6019 79.4934 49.8322 79.2779 50.1206 79.1222C50.4089 78.9664 50.7271 78.8504 51.0751 78.7741C51.4264 78.6946 51.7794 78.6316 52.1341 78.5852C52.5981 78.5256 52.9743 78.4808 53.2626 78.451C53.5543 78.4179 53.7664 78.3632 53.899 78.2869C54.0349 78.2107 54.1028 78.0781 54.1028 77.8892V77.8494C54.1028 77.3589 53.9686 76.9777 53.7001 76.706C53.435 76.4342 53.0323 76.2983 52.492 76.2983C51.9319 76.2983 51.4927 76.4209 51.1745 76.6662C50.8564 76.9115 50.6326 77.1733 50.5034 77.4517L49.3897 77.054C49.5886 76.59 49.8538 76.2287 50.1852 75.9702C50.5199 75.7083 50.8845 75.526 51.2789 75.4233C51.6767 75.3172 52.0678 75.2642 52.4522 75.2642C52.6975 75.2642 52.9792 75.294 53.2974 75.3537C53.6189 75.41 53.9288 75.5277 54.2271 75.7067C54.5287 75.8857 54.7789 76.1558 54.9778 76.517C55.1767 76.8783 55.2761 77.3622 55.2761 77.9688V83H54.1028V81.9659H54.0431C53.9636 82.1316 53.831 82.3089 53.6454 82.4979C53.4598 82.6868 53.2129 82.8475 52.9047 82.9801C52.5964 83.1127 52.2202 83.179 51.7761 83.179ZM51.9551 82.125C52.4191 82.125 52.8102 82.0339 53.1284 81.8516C53.4499 81.6693 53.6918 81.4339 53.8542 81.1456C54.0199 80.8572 54.1028 80.554 54.1028 80.2358V79.1619C54.0531 79.2216 53.9437 79.2763 53.7747 79.326C53.609 79.3724 53.4167 79.4138 53.198 79.4503C52.9825 79.4834 52.7721 79.5133 52.5666 79.5398C52.3644 79.563 52.2003 79.5829 52.0744 79.5994C51.7695 79.6392 51.4844 79.7038 51.2193 79.7933C50.9574 79.8795 50.7453 80.0104 50.5829 80.1861C50.4238 80.3584 50.3443 80.5937 50.3443 80.892C50.3443 81.2997 50.4951 81.608 50.7967 81.8168C51.1016 82.0223 51.4877 82.125 51.9551 82.125ZM60.7386 75.3636V76.358H56.7812V75.3636H60.7386ZM57.9347 73.5341H59.108V80.8125C59.108 81.1439 59.156 81.3925 59.2521 81.5582C59.3516 81.7206 59.4775 81.83 59.63 81.8864C59.7857 81.9394 59.9498 81.9659 60.1222 81.9659C60.2514 81.9659 60.3575 81.9593 60.4403 81.946C60.5232 81.9295 60.5895 81.9162 60.6392 81.9062L60.8778 82.9602C60.7983 82.9901 60.6873 83.0199 60.5447 83.0497C60.4022 83.0829 60.2216 83.0994 60.0028 83.0994C59.6714 83.0994 59.3466 83.0282 59.0284 82.8857C58.7135 82.7431 58.4517 82.526 58.2429 82.2344C58.0374 81.9427 57.9347 81.5748 57.9347 81.1307V73.5341ZM65.6232 83.1591C64.8874 83.1591 64.2527 82.9967 63.7191 82.6719C63.1888 82.3438 62.7795 81.8864 62.4911 81.2997C62.2061 80.7098 62.0636 80.0237 62.0636 79.2415C62.0636 78.4593 62.2061 77.7699 62.4911 77.1733C62.7795 76.5734 63.1805 76.1061 63.6942 75.7713C64.2113 75.4332 64.8145 75.2642 65.5039 75.2642C65.9016 75.2642 66.2944 75.3305 66.6822 75.4631C67.07 75.5956 67.4229 75.8111 67.7411 76.1094C68.0593 76.4044 68.3129 76.7955 68.5018 77.2827C68.6907 77.7699 68.7852 78.3698 68.7852 79.0824V79.5795H62.8988V78.5653H67.592C67.592 78.1345 67.5058 77.75 67.3335 77.4119C67.1644 77.0739 66.9225 76.8071 66.6076 76.6115C66.296 76.416 65.9281 76.3182 65.5039 76.3182C65.0366 76.3182 64.6322 76.4342 64.2908 76.6662C63.9528 76.8949 63.6926 77.1932 63.5103 77.5611C63.328 77.929 63.2369 78.3234 63.2369 78.7443V79.4205C63.2369 79.9972 63.3363 80.486 63.5352 80.8871C63.7373 81.2848 64.0174 81.5881 64.3754 81.7969C64.7333 82.0024 65.1493 82.1051 65.6232 82.1051C65.9315 82.1051 66.2099 82.062 66.4585 81.9759C66.7103 81.8864 66.9274 81.7538 67.1097 81.5781C67.292 81.3991 67.4329 81.1771 67.5323 80.9119L68.6658 81.2301C68.5465 81.6146 68.346 81.9527 68.0643 82.2443C67.7826 82.5327 67.4345 82.758 67.0202 82.9205C66.6059 83.0795 66.1403 83.1591 65.6232 83.1591ZM70.57 83V75.3636H71.7035V76.517H71.783C71.9222 76.1392 72.1741 75.8326 72.5387 75.5973C72.9033 75.362 73.3143 75.2443 73.7717 75.2443C73.8578 75.2443 73.9656 75.246 74.0948 75.2493C74.2241 75.2526 74.3219 75.2576 74.3881 75.2642V76.4574C74.3484 76.4474 74.2572 76.4325 74.1147 76.4126C73.9755 76.3894 73.828 76.3778 73.6722 76.3778C73.301 76.3778 72.9696 76.4557 72.6779 76.6115C72.3896 76.764 72.1609 76.9761 71.9918 77.2479C71.8261 77.5163 71.7433 77.8229 71.7433 78.1676V83H70.57ZM75.7789 83V75.3636H76.9522V83H75.7789ZM76.3755 74.0909C76.1468 74.0909 75.9496 74.013 75.7839 73.8572C75.6215 73.7015 75.5403 73.5142 75.5403 73.2955C75.5403 73.0767 75.6215 72.8894 75.7839 72.7337C75.9496 72.5779 76.1468 72.5 76.3755 72.5C76.6042 72.5 76.7998 72.5779 76.9622 72.7337C77.1279 72.8894 77.2108 73.0767 77.2108 73.2955C77.2108 73.5142 77.1279 73.7015 76.9622 73.8572C76.7998 74.013 76.6042 74.0909 76.3755 74.0909ZM81.3484 83.179C80.8645 83.179 80.4253 83.0878 80.0309 82.9055C79.6365 82.7199 79.3233 82.4531 79.0913 82.1051C78.8593 81.7538 78.7433 81.3295 78.7433 80.8324C78.7433 80.3949 78.8294 80.0402 79.0018 79.7685C79.1741 79.4934 79.4045 79.2779 79.6928 79.1222C79.9812 78.9664 80.2994 78.8504 80.6474 78.7741C80.9987 78.6946 81.3517 78.6316 81.7063 78.5852C82.1703 78.5256 82.5465 78.4808 82.8349 78.451C83.1265 78.4179 83.3387 78.3632 83.4712 78.2869C83.6071 78.2107 83.6751 78.0781 83.6751 77.8892V77.8494C83.6751 77.3589 83.5408 76.9777 83.2724 76.706C83.0072 76.4342 82.6045 76.2983 82.0643 76.2983C81.5041 76.2983 81.065 76.4209 80.7468 76.6662C80.4286 76.9115 80.2049 77.1733 80.0756 77.4517L78.962 77.054C79.1609 76.59 79.426 76.2287 79.7575 75.9702C80.0922 75.7083 80.4568 75.526 80.8512 75.4233C81.2489 75.3172 81.64 75.2642 82.0245 75.2642C82.2698 75.2642 82.5515 75.294 82.8697 75.3537C83.1912 75.41 83.5011 75.5277 83.7994 75.7067C84.101 75.8857 84.3512 76.1558 84.5501 76.517C84.7489 76.8783 84.8484 77.3622 84.8484 77.9688V83H83.6751V81.9659H83.6154C83.5359 82.1316 83.4033 82.3089 83.2177 82.4979C83.0321 82.6868 82.7852 82.8475 82.4769 82.9801C82.1687 83.1127 81.7925 83.179 81.3484 83.179ZM81.5273 82.125C81.9914 82.125 82.3825 82.0339 82.7006 81.8516C83.0221 81.6693 83.2641 81.4339 83.4265 81.1456C83.5922 80.8572 83.6751 80.554 83.6751 80.2358V79.1619C83.6254 79.2216 83.516 79.2763 83.3469 79.326C83.1812 79.3724 82.989 79.4138 82.7702 79.4503C82.5548 79.4834 82.3443 79.5133 82.1388 79.5398C81.9367 79.563 81.7726 79.5829 81.6467 79.5994C81.3417 79.6392 81.0567 79.7038 80.7915 79.7933C80.5297 79.8795 80.3176 80.0104 80.1552 80.1861C79.9961 80.3584 79.9165 80.5937 79.9165 80.892C79.9165 81.2997 80.0674 81.608 80.369 81.8168C80.6739 82.0223 81.06 82.125 81.5273 82.125ZM88.1632 72.8182V83H86.9899V72.8182H88.1632Z" fill="white" fill-opacity="0.87"/>
<path d="M98.5 76L102 79.5L105.5 76" stroke="white" stroke-opacity="0.6" stroke-linejoin="bevel"/>
<path d="M123.233 83V72.8182H129.378V73.9119H124.466V77.3523H129.06V78.446H124.466V81.9062H129.457V83H123.233ZM131.441 83V75.3636H132.575V76.5568H132.674C132.833 76.1491 133.09 75.8326 133.445 75.6072C133.799 75.3786 134.225 75.2642 134.722 75.2642C135.226 75.2642 135.645 75.3786 135.98 75.6072C136.318 75.8326 136.582 76.1491 136.771 76.5568H136.85C137.046 76.1624 137.339 75.8492 137.73 75.6172C138.121 75.3819 138.59 75.2642 139.137 75.2642C139.82 75.2642 140.378 75.478 140.812 75.9055C141.247 76.3298 141.464 76.991 141.464 77.8892V83H140.29V77.8892C140.29 77.3258 140.136 76.9231 139.828 76.6811C139.52 76.4392 139.157 76.3182 138.739 76.3182C138.202 76.3182 137.786 76.4806 137.491 76.8054C137.196 77.1269 137.049 77.5346 137.049 78.0284V83H135.856V77.7699C135.856 77.3357 135.715 76.986 135.433 76.7209C135.152 76.4524 134.789 76.3182 134.344 76.3182C134.04 76.3182 133.754 76.3994 133.489 76.5618C133.228 76.7242 133.015 76.9496 132.853 77.2379C132.694 77.523 132.614 77.8527 132.614 78.2273V83H131.441ZM143.609 83V75.3636H144.782V83H143.609ZM144.206 74.0909C143.977 74.0909 143.78 74.013 143.614 73.8572C143.452 73.7015 143.37 73.5142 143.37 73.2955C143.37 73.0767 143.452 72.8894 143.614 72.7337C143.78 72.5779 143.977 72.5 144.206 72.5C144.434 72.5 144.63 72.5779 144.792 72.7337C144.958 72.8894 145.041 73.0767 145.041 73.2955C145.041 73.5142 144.958 73.7015 144.792 73.8572C144.63 74.013 144.434 74.0909 144.206 74.0909ZM152.34 77.0739L151.286 77.3722C151.22 77.1965 151.122 77.0258 150.993 76.8601C150.867 76.6911 150.695 76.5518 150.476 76.4425C150.257 76.3331 149.977 76.2784 149.636 76.2784C149.169 76.2784 148.779 76.3861 148.468 76.6016C148.159 76.8137 148.005 77.0838 148.005 77.4119C148.005 77.7036 148.111 77.9339 148.323 78.103C148.535 78.272 148.867 78.4129 149.318 78.5256L150.451 78.804C151.134 78.9697 151.643 79.2232 151.977 79.5646C152.312 79.9027 152.48 80.3385 152.48 80.8722C152.48 81.3097 152.354 81.7008 152.102 82.0455C151.853 82.3902 151.505 82.6619 151.058 82.8608C150.61 83.0597 150.09 83.1591 149.497 83.1591C148.718 83.1591 148.073 82.9901 147.563 82.652C147.052 82.3139 146.729 81.8201 146.593 81.1705L147.707 80.892C147.813 81.303 148.013 81.6113 148.308 81.8168C148.607 82.0223 148.996 82.125 149.477 82.125C150.024 82.125 150.458 82.009 150.779 81.777C151.104 81.5417 151.267 81.2599 151.267 80.9318C151.267 80.6667 151.174 80.4446 150.988 80.2656C150.802 80.0833 150.517 79.9474 150.133 79.858L148.86 79.5597C148.161 79.3939 147.647 79.1371 147.319 78.7891C146.994 78.4377 146.832 77.9986 146.832 77.4716C146.832 77.0407 146.953 76.6596 147.195 76.3281C147.44 75.9967 147.773 75.7365 148.194 75.5476C148.618 75.3587 149.099 75.2642 149.636 75.2642C150.392 75.2642 150.985 75.4299 151.416 75.7614C151.85 76.0928 152.158 76.5303 152.34 77.0739ZM159.655 77.0739L158.601 77.3722C158.535 77.1965 158.437 77.0258 158.308 76.8601C158.182 76.6911 158.009 76.5518 157.79 76.4425C157.572 76.3331 157.292 76.2784 156.95 76.2784C156.483 76.2784 156.094 76.3861 155.782 76.6016C155.474 76.8137 155.32 77.0838 155.32 77.4119C155.32 77.7036 155.426 77.9339 155.638 78.103C155.85 78.272 156.181 78.4129 156.632 78.5256L157.766 78.804C158.448 78.9697 158.957 79.2232 159.292 79.5646C159.627 79.9027 159.794 80.3385 159.794 80.8722C159.794 81.3097 159.668 81.7008 159.416 82.0455C159.168 82.3902 158.82 82.6619 158.372 82.8608C157.925 83.0597 157.404 83.1591 156.811 83.1591C156.032 83.1591 155.388 82.9901 154.877 82.652C154.367 82.3139 154.044 81.8201 153.908 81.1705L155.021 80.892C155.127 81.303 155.328 81.6113 155.623 81.8168C155.921 82.0223 156.311 82.125 156.791 82.125C157.338 82.125 157.772 82.009 158.094 81.777C158.419 81.5417 158.581 81.2599 158.581 80.9318C158.581 80.6667 158.488 80.4446 158.303 80.2656C158.117 80.0833 157.832 79.9474 157.447 79.858L156.175 79.5597C155.475 79.3939 154.962 79.1371 154.634 78.7891C154.309 78.4377 154.146 77.9986 154.146 77.4716C154.146 77.0407 154.267 76.6596 154.509 76.3281C154.754 75.9967 155.088 75.7365 155.509 75.5476C155.933 75.3587 156.413 75.2642 156.95 75.2642C157.706 75.2642 158.299 75.4299 158.73 75.7614C159.164 76.0928 159.473 76.5303 159.655 77.0739ZM161.56 83V75.3636H162.733V83H161.56ZM162.157 74.0909C161.928 74.0909 161.731 74.013 161.565 73.8572C161.403 73.7015 161.322 73.5142 161.322 73.2955C161.322 73.0767 161.403 72.8894 161.565 72.7337C161.731 72.5779 161.928 72.5 162.157 72.5C162.385 72.5 162.581 72.5779 162.743 72.7337C162.909 72.8894 162.992 73.0767 162.992 73.2955C162.992 73.5142 162.909 73.7015 162.743 73.8572C162.581 74.013 162.385 74.0909 162.157 74.0909ZM167.985 83.1591C167.295 83.1591 166.69 82.995 166.17 82.6669C165.653 82.3388 165.249 81.8797 164.957 81.2898C164.669 80.6998 164.525 80.0104 164.525 79.2216C164.525 78.4261 164.669 77.7318 164.957 77.1385C165.249 76.5452 165.653 76.0845 166.17 75.7564C166.69 75.4283 167.295 75.2642 167.985 75.2642C168.674 75.2642 169.277 75.4283 169.794 75.7564C170.315 76.0845 170.719 76.5452 171.007 77.1385C171.299 77.7318 171.445 78.4261 171.445 79.2216C171.445 80.0104 171.299 80.6998 171.007 81.2898C170.719 81.8797 170.315 82.3388 169.794 82.6669C169.277 82.995 168.674 83.1591 167.985 83.1591ZM167.985 82.1051C168.508 82.1051 168.939 81.9709 169.277 81.7024C169.615 81.4339 169.866 81.081 170.028 80.6435C170.19 80.206 170.272 79.732 170.272 79.2216C170.272 78.7112 170.19 78.2356 170.028 77.7947C169.866 77.3539 169.615 76.9976 169.277 76.7259C168.939 76.4541 168.508 76.3182 167.985 76.3182C167.461 76.3182 167.03 76.4541 166.692 76.7259C166.354 76.9976 166.104 77.3539 165.941 77.7947C165.779 78.2356 165.698 78.7112 165.698 79.2216C165.698 79.732 165.779 80.206 165.941 80.6435C166.104 81.081 166.354 81.4339 166.692 81.7024C167.03 81.9709 167.461 82.1051 167.985 82.1051ZM174.409 78.4062V83H173.236V75.3636H174.369V76.5568H174.469C174.648 76.169 174.92 75.8575 175.284 75.6222C175.649 75.3835 176.119 75.2642 176.696 75.2642C177.213 75.2642 177.666 75.3703 178.053 75.5824C178.441 75.7912 178.743 76.1094 178.958 76.5369C179.174 76.9612 179.281 77.4981 179.281 78.1477V83H178.108V78.2273C178.108 77.6274 177.952 77.16 177.641 76.8253C177.329 76.4872 176.902 76.3182 176.358 76.3182C175.984 76.3182 175.649 76.3994 175.354 76.5618C175.062 76.7242 174.832 76.9612 174.663 77.2727C174.494 77.5843 174.409 77.9621 174.409 78.4062ZM188.763 75.3636V76.358H184.647V75.3636H188.763ZM185.88 83V74.3097C185.88 73.8722 185.983 73.5076 186.188 73.2159C186.394 72.9242 186.661 72.7055 186.989 72.5597C187.317 72.4138 187.663 72.3409 188.028 72.3409C188.316 72.3409 188.551 72.3641 188.734 72.4105C188.916 72.4569 189.052 72.5 189.141 72.5398L188.803 73.554C188.744 73.5341 188.661 73.5092 188.555 73.4794C188.452 73.4496 188.316 73.4347 188.147 73.4347C187.759 73.4347 187.479 73.5324 187.307 73.728C187.138 73.9235 187.053 74.2102 187.053 74.5881V83H185.88ZM192.436 83.179C191.952 83.179 191.513 83.0878 191.119 82.9055C190.724 82.7199 190.411 82.4531 190.179 82.1051C189.947 81.7538 189.831 81.3295 189.831 80.8324C189.831 80.3949 189.917 80.0402 190.09 79.7685C190.262 79.4934 190.492 79.2779 190.781 79.1222C191.069 78.9664 191.387 78.8504 191.735 78.7741C192.087 78.6946 192.44 78.6316 192.794 78.5852C193.258 78.5256 193.634 78.4808 193.923 78.451C194.214 78.4179 194.427 78.3632 194.559 78.2869C194.695 78.2107 194.763 78.0781 194.763 77.8892V77.8494C194.763 77.3589 194.629 76.9777 194.36 76.706C194.095 76.4342 193.692 76.2983 193.152 76.2983C192.592 76.2983 192.153 76.4209 191.835 76.6662C191.517 76.9115 191.293 77.1733 191.164 77.4517L190.05 77.054C190.249 76.59 190.514 76.2287 190.845 75.9702C191.18 75.7083 191.545 75.526 191.939 75.4233C192.337 75.3172 192.728 75.2642 193.112 75.2642C193.358 75.2642 193.639 75.294 193.958 75.3537C194.279 75.41 194.589 75.5277 194.887 75.7067C195.189 75.8857 195.439 76.1558 195.638 76.517C195.837 76.8783 195.936 77.3622 195.936 77.9688V83H194.763V81.9659H194.703C194.624 82.1316 194.491 82.3089 194.306 82.4979C194.12 82.6868 193.873 82.8475 193.565 82.9801C193.257 83.1127 192.88 83.179 192.436 83.179ZM192.615 82.125C193.079 82.125 193.47 82.0339 193.789 81.8516C194.11 81.6693 194.352 81.4339 194.514 81.1456C194.68 80.8572 194.763 80.554 194.763 80.2358V79.1619C194.713 79.2216 194.604 79.2763 194.435 79.326C194.269 79.3724 194.077 79.4138 193.858 79.4503C193.643 79.4834 193.432 79.5133 193.227 79.5398C193.025 79.563 192.86 79.5829 192.735 79.5994C192.43 79.6392 192.145 79.7038 191.879 79.7933C191.618 79.8795 191.405 80.0104 191.243 80.1861C191.084 80.3584 191.004 80.5937 191.004 80.892C191.004 81.2997 191.155 81.608 191.457 81.8168C191.762 82.0223 192.148 82.125 192.615 82.125ZM201.18 83.1591C200.464 83.1591 199.848 82.9901 199.331 82.652C198.814 82.3139 198.416 81.8482 198.137 81.255C197.859 80.6617 197.72 79.9839 197.72 79.2216C197.72 78.446 197.862 77.7616 198.147 77.1683C198.436 76.5717 198.837 76.1061 199.35 75.7713C199.868 75.4332 200.471 75.2642 201.16 75.2642C201.697 75.2642 202.181 75.3636 202.612 75.5625C203.043 75.7614 203.396 76.0398 203.671 76.3977C203.946 76.7557 204.117 77.1733 204.183 77.6506H203.01C202.92 77.3026 202.721 76.9943 202.413 76.7259C202.108 76.4541 201.697 76.3182 201.18 76.3182C200.723 76.3182 200.322 76.4375 199.977 76.6761C199.636 76.9115 199.369 77.2446 199.176 77.6754C198.988 78.103 198.893 78.6051 198.893 79.1818C198.893 79.7718 198.986 80.2855 199.172 80.723C199.36 81.1605 199.626 81.5002 199.967 81.7422C200.312 81.9841 200.716 82.1051 201.18 82.1051C201.485 82.1051 201.762 82.0521 202.01 81.946C202.259 81.84 202.469 81.6875 202.642 81.4886C202.814 81.2898 202.937 81.0511 203.01 80.7727H204.183C204.117 81.2235 203.953 81.6295 203.691 81.9908C203.432 82.3487 203.089 82.6338 202.662 82.8459C202.237 83.0547 201.743 83.1591 201.18 83.1591ZM209.219 75.3636V76.358H205.262V75.3636H209.219ZM206.415 73.5341H207.588V80.8125C207.588 81.1439 207.636 81.3925 207.733 81.5582C207.832 81.7206 207.958 81.83 208.11 81.8864C208.266 81.9394 208.43 81.9659 208.603 81.9659C208.732 81.9659 208.838 81.9593 208.921 81.946C209.004 81.9295 209.07 81.9162 209.12 81.9062L209.358 82.9602C209.279 82.9901 209.168 83.0199 209.025 83.0497C208.883 83.0829 208.702 83.0994 208.483 83.0994C208.152 83.0994 207.827 83.0282 207.509 82.8857C207.194 82.7431 206.932 82.526 206.723 82.2344C206.518 81.9427 206.415 81.5748 206.415 81.1307V73.5341ZM214.004 83.1591C213.315 83.1591 212.71 82.995 212.19 82.6669C211.673 82.3388 211.268 81.8797 210.977 81.2898C210.688 80.6998 210.544 80.0104 210.544 79.2216C210.544 78.4261 210.688 77.7318 210.977 77.1385C211.268 76.5452 211.673 76.0845 212.19 75.7564C212.71 75.4283 213.315 75.2642 214.004 75.2642C214.694 75.2642 215.297 75.4283 215.814 75.7564C216.334 76.0845 216.739 76.5452 217.027 77.1385C217.319 77.7318 217.464 78.4261 217.464 79.2216C217.464 80.0104 217.319 80.6998 217.027 81.2898C216.739 81.8797 216.334 82.3388 215.814 82.6669C215.297 82.995 214.694 83.1591 214.004 83.1591ZM214.004 82.1051C214.528 82.1051 214.959 81.9709 215.297 81.7024C215.635 81.4339 215.885 81.081 216.048 80.6435C216.21 80.206 216.291 79.732 216.291 79.2216C216.291 78.7112 216.21 78.2356 216.048 77.7947C215.885 77.3539 215.635 76.9976 215.297 76.7259C214.959 76.4541 214.528 76.3182 214.004 76.3182C213.481 76.3182 213.05 76.4541 212.712 76.7259C212.374 76.9976 212.123 77.3539 211.961 77.7947C211.799 78.2356 211.717 78.7112 211.717 79.2216C211.717 79.732 211.799 80.206 211.961 80.6435C212.123 81.081 212.374 81.4339 212.712 81.7024C213.05 81.9709 213.481 82.1051 214.004 82.1051ZM219.256 83V75.3636H220.389V76.517H220.469C220.608 76.1392 220.86 75.8326 221.224 75.5973C221.589 75.362 222 75.2443 222.457 75.2443C222.543 75.2443 222.651 75.246 222.78 75.2493C222.91 75.2526 223.007 75.2576 223.074 75.2642V76.4574C223.034 76.4474 222.943 76.4325 222.8 76.4126C222.661 76.3894 222.514 76.3778 222.358 76.3778C221.987 76.3778 221.655 76.4557 221.363 76.6115C221.075 76.764 220.846 76.9761 220.677 77.2479C220.512 77.5163 220.429 77.8229 220.429 78.1676V83H219.256Z" fill="white" fill-opacity="0.87"/>
<path d="M232.5 76L236 79.5L239.5 76" stroke="white" stroke-opacity="0.6" stroke-linejoin="bevel"/>
</g>
<defs>
<filter id="filter0_d_23_111" x="0" y="0" width="440" height="114" filterUnits="userSpaceOnUse" color-interpolation-filters="sRGB">
<feFlood flood-opacity="0" result="BackgroundImageFix"/>
<feColorMatrix in="SourceAlpha" type="matrix" values="0 0 0 0 0 0 0 0 0 0 0 0 0 0 0 0 0 0 127 0" result="hardAlpha"/>
<feOffset/>
<feGaussianBlur stdDeviation="10"/>
<feComposite in2="hardAlpha" operator="out"/>
<feColorMatrix type="matrix" values="0 0 0 0 0 0 0 0 0 0 0 0 0 0 0 0 0 0 0.5 0"/>
<feBlend mode="normal" in2="BackgroundImageFix" result="effect1_dropShadow_23_111"/>
<feBlend mode="normal" in="SourceGraphic" in2="effect1_dropShadow_23_111" result="shape"/>
</filter>
<clipPath id="clip0_23_111">
<rect width="16" height="16" fill="white" transform="translate(36 36)"/>
</clipPath>
</defs>
</svg>
